<svg width="32" height="32" viewBox="0 0 32 32" fill="none" xmlns="http://www.w3.org/2000/svg">
<rect width="32" height="32" rx="8" fill="url(#paint0_linear_2_252)"/>
<rect width="32" height="32" rx="8" fill="url(#paint1_linear_2_252)"/>
<g filter="url(#filter0_d_2_252)">
<path d="M11.1339 22.0474C11.0372 21.7017 11.2238 21.301 11.5506 21.1526L23.1415 15.8875C23.4683 15.739 23.8117 15.8989 23.9084 16.2446L24.3259 17.737C24.4226 18.0827 24.236 18.4834 23.9092 18.6318L12.3183 23.8969C11.9915 24.0454 11.6481 23.8855 11.5514 23.5398L11.1339 22.0474Z" fill="white" fill-opacity="0.9"/>
<path d="M9.90443 18.2349C9.80772 17.8892 9.99428 17.4885 10.3211 17.3401L21.912 12.075C22.2389 11.9265 22.5822 12.0864 22.6789 12.4321L23.0964 13.9245C23.1931 14.2702 23.0066 14.6709 22.6797 14.8193L11.0888 20.0844C10.762 20.2329 10.4186 20.073 10.3219 19.7273L9.90443 18.2349Z" fill="white" fill-opacity="0.9"/>
<path d="M8.67592 14.4302C8.57921 14.0845 8.76577 13.6839 9.09261 13.5354L20.6835 8.2703C21.0103 8.12183 21.3537 8.28173 21.4504 8.62745L21.8679 10.1198C21.9646 10.4656 21.778 10.8662 21.4512 11.0146L9.86031 16.2797C9.53347 16.4282 9.19011 16.2683 9.0934 15.9226L8.67592 14.4302Z" fill="white" fill-opacity="0.9"/>
</g>
<defs>
<filter id="filter0_d_2_252" x="5.65039" y="6.21484" width="21.701" height="21.7375" filterUnits="userSpaceOnUse" color-interpolation-filters="sRGB">
<feFlood flood-opacity="0" result="BackgroundImageFix"/>
<feColorMatrix in="SourceAlpha" type="matrix" values="0 0 0 0 0 0 0 0 0 0 0 0 0 0 0 0 0 0 127 0" result="hardAlpha"/>
<feOffset dy="1"/>
<feGaussianBlur stdDeviation="1.5"/>
<feColorMatrix type="matrix" values="0 0 0 0 0.0745098 0 0 0 0 0.101961 0 0 0 0 0.160784 0 0 0 0.3 0"/>
<feBlend mode="normal" in2="BackgroundImageFix" result="effect1_dropShadow_2_252"/>
<feBlend mode="normal" in="SourceGraphic" in2="effect1_dropShadow_2_252" result="shape"/>
</filter>
<linearGradient id="paint0_linear_2_252" x1="23.5556" y1="-1.84112e-06" x2="2.22222" y2="32" gradientUnits="userSpaceOnUse">
<stop offset="0.0833333" stop-color="#808BF7"/>
<stop offset="1" stop-color="#483DD0"/>
</linearGradient>
<linearGradient id="paint1_linear_2_252" x1="23.5556" y1="-1.84112e-06" x2="2.22222" y2="32" gradientUnits="userSpaceOnUse">
<stop offset="0.0833333" stop-color="#2463FF"/>
<stop offset="1" stop-color="#195BFF"/>
</linearGradient>
</defs>
</svg>
